<?xml version="1.0" encoding="UTF-8"?>
<svg id="Layer_1" data-name="Layer 1" xmlns="http://www.w3.org/2000/svg" viewBox="0 0 915.02 438.75">
  <defs>
    <style>
      .cls-1 {
        fill: #fff3d2;
      }
    </style>
  </defs>
  <path class="cls-1" d="M51.87,134.57c-26.91-12.82-19.69-39.56-17.88-61.96,1.26-14.09,0-32.87-8.85-44.8-6.32-8.49-1.45-12.82,5.24-13.37,14.81-1.26,18.97,13.55,19.51,25.47,1.44,39.92-27.09,94.65,26.01,94.65h37.39c-10.48-26.91,1.26-66.47,5.42-95.91.47-3.36.91-6.58,1.17-9.7,7.01,9.49,16.02,10.4,16.02,10.4h0c3.38.78,7.13.93,10.97,1.29,9.21.9,30.53-3.61,44.25-7.95-11.2,15.17-42.09,29.98-56.54,48.23-11.38,14.09-9.39,37.03-6.86,53.65h37.75c-5.24-5.24-9.93-14.99-8.13-22.58,3.43-12.46,32.87-22.76,42.99-14.45,7.04,5.96,1.08,25.83,5.06,37.03h37.75c-8.31-8.67-10.3-23.84-8.31-38.29,2.17-18.97,6.5-38.11,8.85-56.9,2.53-21.13.54-38.11-20.77-37.93-18.6.36-81.77,15.71-94.06,0h-17.02s-49.13,0-49.13,0c22.04,3.79,22.04,26.01,20.59,43.71-1.99,22.94-9.21,53.47-.36,70.81-20.77-19.33-11.02-72.07-21.31-102.42-3.25-9.03-9.39-12.1-18.6-12.1H1.66c8.49,8.85,10.12,24.75,8.13,39.2-2.53,18.79-6.32,37.21-8.67,55.99-1.81,13.73-1.26,26.55.54,37.93h50.21ZM214.06,37.57c-1.81,14.45-4.7,29.8-7.04,44.43-9.39-10.84-38.47,3.97-46.6,3.97,9.75-18.06,36.85-30.89,53.65-48.41Z"/>
  <path class="cls-1" d="M290.72,134.57c-8.31-8.67-10.12-24.2-8.31-38.47.72-5.96,1.63-12.1,2.71-18.24,31.97-4.15,79.11,10.66,33.6,56.72h49.49c-4.88-5.78,0-21.86,0-29.62,0-26.37-14.81-38.11-33.78-42.09,7.59-21.13,22.04-57.8,34.86-61.41h-41.36l-23.12,60.15c-5.96.54-11.92,1.63-17.34,2.71,1.45-8.49,2.89-16.8,3.97-25.29,1.63-13.55,1.26-26.37-.72-37.57h-37.93c8.49,8.85,10.12,24.75,8.13,39.2-2.53,18.79-7.32,37.21-9.67,55.99-1.81,13.73-6.68,26.31-1.11,37.93h40.59Z"/>
  <path class="cls-1" d="M432.79,136.01c18.79,0,42.35-6.38,54.63-13.78,0,0,3.26-1.49,7.02-3.25.22,5.43.74,10.66,1.53,15.59h37.93c-2.89-2.89-4.88-6.68-6.32-11.02,5.78,5.24,16.26,11.02,33.96,11.02,32.15,0,52.74-38.65,52.74-74.42,0-44.8-17.88-58.7-37.03-58.7-16.44,0-32.33,7.59-41.54,20.95,0-7.41-.72-14.45-1.81-20.95h-37.93c8.49,8.85,10.12,24.75,8.13,39.2-1.39,10.3-3.15,20.49-4.85,30.69-3.43,4.03-7.19,8.32-9.02,9.96-17.16,16.98-52.56,26.55-77.67,21.31-12.46-2.53-20.23-9.03-24.38-16.8-4.88-9.03,2.35-12.28,10.84-8.49,15.35,6.86,43.53,17.34,57.62-.72l-9.39-25.29c-9.57,12.46-26.37,7.59-41.54,4.7-6.14-1.26-12.82-2.35-18.79-.54,4.52-12.28,14.81-22.4,27.64-23.3,20.59-1.26,35.4,11.74,55.81,9.75,7.77-.72,14.99-3.61,19.87-9.75L480.83,0c-4.33,5.6-10.12,7.59-16.08,8.13-9.21.54-18.06-5.24-31.07-5.24-31.25,0-63.4,23.3-63.4,67.37,0,46.24,27.82,65.75,62.5,65.75ZM528.84,85.26c.54-17.7,7.95-39.2,18.42-53.1,18.24-24.56,38.11-13.73,38.11,23.66-.18,10.84-2.17,22.4-6.14,32.15-13.91,33.05-51.66,37.57-50.4-2.71Z"/>
  <path class="cls-1" d="M62.5,288.92c18.79,0,45.16-7.04,57.44-14.45,2.75-1.58,4.84-2.95,6.43-4.09,4.73,11.03,16.06,15.65,32.72,15.65,13.42,0,34.49-3.35,47.8-4.89l2.79-37.61c-28.01,7.56-33.23,14.75-46.8,22.45-12.1,6.86-27.46,5.96-17.16-14.99,17.52-35.58,28.36-55.81,21.13-98.08h-41.91c8.49,8.67,10.3,24.2,8.49,38.47-1.44,11.76-3.63,23.39-5.65,35.05-4.18,4.19-7.85,7.76-7.85,7.76-17.16,16.98-52.56,26.55-77.67,21.31-12.46-2.53-20.23-9.03-24.38-16.8-4.88-9.03,2.35-12.28,10.84-8.49,15.35,6.86,43.53,17.34,57.62-.72l-9.39-25.29c-9.57,12.46-26.37,7.59-41.54,4.7-6.14-1.26-12.82-2.35-18.79-.54,4.52-12.28,14.81-22.4,27.64-23.3,20.59-1.27,35.4,11.74,55.81,9.75,7.77-.72,14.99-3.61,19.87-9.75l-9.39-32.15c-4.33,5.6-10.12,7.59-16.08,8.13-9.21.54-18.06-5.24-31.07-5.24C32.15,155.79,0,179.1,0,223.17,0,269.41,27.82,288.92,62.5,288.92Z"/>
  <path class="cls-1" d="M255.87,185.06c20.59-1.27,35.4,11.74,55.81,9.75,7.77-.72,14.99-3.61,19.87-9.75l-9.39-32.15c-4.33,5.6-10.12,7.59-16.08,8.13-9.21.54-18.06-5.24-31.07-5.24-31.25,0-63.4,23.3-63.4,67.37,0,46.24,27.82,65.75,62.5,65.75,18.79,0,45.16-7.04,57.44-14.45v-40.28c-17.16,16.98-52.56,26.55-77.67,21.31-12.46-2.53-20.23-9.03-24.38-16.8-4.88-9.03,2.35-12.28,10.84-8.49,15.35,6.86,43.53,17.34,57.62-.72l-9.39-25.29c-9.57,12.46-26.37,7.59-41.54,4.7-6.14-1.26-12.82-2.35-18.79-.54,4.52-12.28,14.81-22.4,27.64-23.3Z"/>
  <path class="cls-1" d="M550,155.79c-18.6.36-81.77,15.71-94.06,0h-52.92c10.66,5.78,16.26,16.44,18.6,28,5.78,28.72-3.79,62.5-30.89,76.77-26.73,14.27-56.54,3.97-22.4-39.38,17.88-22.58,35.22-37.93,17.16-65.39h-48.23c26.01,12.1-4.15,80.92,1.08,111.09,2.71,14.99,15.17,22.04,31.97,22.04,50.53,0,81.09-49.73,86.44-97.91,4.6,3.36,10.77,3.39,17.19,3.99,9.21.9,30.53-3.61,44.25-7.95-11.2,15.17-42.09,29.98-56.54,48.23-11.38,14.09-9.39,37.03-6.86,53.65h37.75c-5.24-5.24-9.93-14.99-8.13-22.58,3.43-12.46,32.87-22.76,42.99-14.45,7.04,5.96,1.08,25.83,5.06,37.03h37.75c-8.31-8.67-10.3-23.84-8.31-38.29,2.17-18.97,6.5-38.11,8.85-56.9,2.53-21.13.54-38.11-20.77-37.93ZM534.1,236.35c-9.39-10.84-38.47,3.97-46.6,3.97,9.75-18.06,36.85-30.89,53.65-48.41-1.81,14.45-4.7,29.8-7.04,44.43Z"/>
  <path class="cls-1" d="M731.36,155.79c-14.28,0-31,2.97-42.7,14.33l-4.48-14.02c-29.7.36-91.42-.49-112.55-.67,11.74,7.02,9.39,32.15,9.39,32.15,5.42-1.99,19.69-2.89,36.49-3.25-15.35,22.04,18.24,71.35-12.82,104.58h52.74c29.62-45.16-71.71-105.49.36-104.58,7.47.09,14.49.22,20.55.33-6.83,13.35-11,30.77-10.74,45,1.26,51.66,21.31,59.25,56.18,59.25,14.99,0,32.69-3.25,44.25-16.08,11.92-12.82,19.87-38.29,19.51-57.8-1.26-51.66-21.49-59.25-56.18-59.25ZM770.56,204.74c-3.25,34.32-60.33,60.33-75.68,62.86-5.6.9-12.28-7.95-10.3-27.46,3.25-34.5,60.33-60.33,75.68-63.04,5.6-.9,12.1,7.95,10.3,27.64Z"/>
  <path class="cls-1" d="M838.07,255.14c-25.29-4.33-18.79-14.09-.36-17.7,13.91-2.89,29.08.72,42.99-1.26,20.77-2.89,34.32-21.13,34.32-41.73s-12.28-38.65-39.92-38.65c-16.98,0-34.86,11.38-45.34,23.84.36-8.49-.36-16.62-1.63-23.84h-37.93c8.49,8.85,10.12,24.75,8.13,39.2-2.53,18.79-6.32,37.21-8.67,55.99-1.81,13.73-1.26,26.55.54,37.93h37.93c-5.06-5.06-7.59-12.82-8.67-21.13,15.17,15.71,38.47,21.13,59.61,21.13,10.3,0,25.11-1.81,35.95-9.75l-11.2-38.65c-9.57,16.08-45.34,18.06-65.75,14.63ZM865.35,177.11c24.38-3.97,25.11,24.39,4.88,33.06-10.66,4.33-37.03,8.13-47.5,18.06,5.06-19.51,20.23-47.32,42.63-51.12Z"/>
  <path class="cls-1" d="M133.15,305.63c8.49,8.85,10.12,24.75,8.13,39.2-.64,4.76-1.36,9.5-2.12,14.22-.01.05-5.1,25.98-23.11,37.41-18.41,11.32-46.21,11.93-66.53,8.52-25.29-4.33-18.79-14.09-.36-17.7,13.91-2.89,29.08.72,42.99-1.26,20.77-2.89,34.32-21.13,34.32-41.73s-12.28-38.65-39.92-38.65c-16.98,0-34.86,11.38-45.34,23.84.36-8.49-.36-16.62-1.63-23.84H1.66c8.49,8.85,10.12,24.75,8.13,39.2-2.53,18.79-6.32,37.21-8.67,55.99-1.81,13.73-1.26,26.55.54,37.93h37.93c-5.06-5.06-7.59-12.82-8.67-21.13,15.17,15.71,38.47,21.13,59.61,21.13,10.3,0,25.11-1.81,35.95-9.75,0,0,2.29-1.61,5.24-3.82.26,4.71.76,9.25,1.45,13.58h37.93c-8.31-8.67-10.12-24.2-8.31-38.47,2.17-18.97,6.5-37.93,9.03-57.08,1.63-13.55,1.26-26.37-.72-37.57h-37.93ZM76.8,326.94c24.38-3.97,25.11,24.39,4.88,33.05-10.66,4.33-37.03,8.13-47.5,18.06,5.06-19.51,20.23-47.32,42.63-51.12Z"/>
  <path class="cls-1" d="M258.15,305.63c-16.44,0-32.33,7.59-41.54,20.95,0-7.4-.72-14.45-1.81-20.95h-37.93c8.49,8.85,10.12,24.75,8.13,39.2-2.53,18.79-6.32,37.21-8.67,55.99-1.81,13.73-1.26,26.55.54,37.93h37.93c-2.89-2.89-4.88-6.68-6.32-11.02,5.78,5.24,16.26,11.02,33.96,11.02,32.15,0,52.74-38.65,52.74-74.42,0-44.8-17.88-58.7-37.03-58.7ZM260.13,392.15c-13.91,33.05-51.66,37.57-50.4-2.71.54-17.7,7.95-39.2,18.42-53.1,18.24-24.56,38.11-13.73,38.11,23.66-.18,10.84-2.17,22.4-6.14,32.15Z"/>
  <path class="cls-1" d="M343.8,334.89c20.59-1.27,35.4,11.74,55.81,9.75,7.77-.72,14.99-3.61,19.87-9.75l-9.39-32.15c-4.33,5.6-10.12,7.59-16.08,8.13-9.21.54-18.06-5.24-31.07-5.24-31.25,0-63.4,23.3-63.4,67.37,0,46.24,27.82,65.75,62.5,65.75,18.79,0,45.16-7.04,57.44-14.45v-40.28c-17.16,16.98-52.56,26.55-77.67,21.31-12.46-2.53-20.23-9.03-24.38-16.8-4.88-9.03,2.35-12.28,10.84-8.49,15.35,6.86,43.53,17.34,57.62-.72l-9.39-25.29c-9.57,12.46-26.37,7.59-41.54,4.7-6.14-1.26-12.82-2.35-18.79-.54,4.52-12.28,14.81-22.4,27.64-23.3Z"/>
</svg>